<?xml version="1.0" standalone="no"?>
<!DOCTYPE svg PUBLIC "-//W3C//DTD SVG 20010904//EN"
 "http://www.w3.org/TR/2001/REC-SVG-20010904/DTD/svg10.dtd">
<svg version="1.0" xmlns="http://www.w3.org/2000/svg"
 width="140.000000pt" height="140.000000pt" viewBox="0 0 140.000000 140.000000"
 preserveAspectRatio="xMidYMid meet">
<metadata>
Created by potrace 1.11, written by Peter Selinger 2001-2013
</metadata>
<g transform="translate(0.000000,140.000000) scale(0.100000,-0.100000)"
fill="#000000" stroke="none">
<path d="M130 1340 c-5 -3 36 -149 92 -325 55 -176 131 -421 169 -545 39 -124
85 -272 103 -330 21 -69 37 -105 47 -105 21 0 31 -36 -121 450 -40 127 -80
257 -90 290 -49 162 -162 520 -166 527 -3 4 19 8 48 9 29 0 91 2 136 3 47 1
90 -3 97 -9 7 -5 46 -118 88 -250 41 -132 94 -298 117 -370 23 -71 57 -177 75
-235 117 -373 137 -436 145 -444 8 -7 31 61 151 443 80 254 223 706 250 788
16 50 29 96 29 100 0 5 -79 8 -175 9 l-174 0 -10 -25 c-6 -15 -60 -174 -121
-355 -61 -181 -112 -331 -114 -333 -3 -4 -50 137 -174 527 l-58 185 -168 0
c-92 0 -172 -2 -176 -5z m1117 -29 c7 0 11 -7 8 -13 -10 -33 -145 -458 -245
-778 -149 -473 -136 -436 -142 -414 -3 11 -38 119 -77 241 l-70 222 124 365
c68 201 126 369 128 373 4 6 219 9 274 4z"/>
</g>
</svg>
